<svg width="20" height="20" viewBox="0 0 20 20" fill="none" xmlns="http://www.w3.org/2000/svg">
<path d="M16.4225 13.0892C16.2662 13.2454 16.0543 13.3332 15.8333 13.3332C15.6124 13.3332 15.4005 13.2454 15.2442 13.0892L10 7.84505L4.75585 13.0892C4.67898 13.1688 4.58702 13.2323 4.48535 13.276C4.38368 13.3196 4.27433 13.3426 4.16368 13.3436C4.05303 13.3446 3.9433 13.3235 3.84089 13.2816C3.73847 13.2397 3.64543 13.1778 3.56719 13.0995C3.48894 13.0213 3.42706 12.9283 3.38516 12.8258C3.34326 12.7234 3.32218 12.6137 3.32314 12.5031C3.3241 12.3924 3.34709 12.2831 3.39076 12.1814C3.43444 12.0797 3.49792 11.9878 3.57751 11.9109L9.41085 6.07755C9.56712 5.92133 9.77905 5.83357 10 5.83357C10.221 5.83357 10.4329 5.92133 10.5892 6.07755L16.4225 11.9109C16.5787 12.0672 16.6665 12.2791 16.6665 12.5001C16.6665 12.721 16.5787 12.9329 16.4225 13.0892Z" fill="#212121"/>
</svg>
