<svg width="20" height="20" viewBox="0 0 20 20" fill="none" xmlns="http://www.w3.org/2000/svg">
<path d="M3.50838 3.65586L3.57755 3.57753C3.72104 3.43405 3.91196 3.34785 4.11448 3.33512C4.317 3.32239 4.51721 3.38398 4.67755 3.50836L4.75588 3.57753L10 8.82086L15.2442 3.57753C15.3211 3.49794 15.413 3.43445 15.5147 3.39078C15.6164 3.3471 15.7257 3.32411 15.8364 3.32315C15.947 3.32219 16.0568 3.34327 16.1592 3.38518C16.2616 3.42708 16.3546 3.48895 16.4329 3.5672C16.5111 3.64544 16.573 3.73848 16.6149 3.8409C16.6568 3.94331 16.6779 4.05305 16.6769 4.16369C16.676 4.27434 16.653 4.38369 16.6093 4.48536C16.5656 4.58703 16.5021 4.67899 16.4225 4.75586L11.1792 10L16.4225 15.2442C16.566 15.3877 16.6522 15.5786 16.665 15.7811C16.6777 15.9836 16.6161 16.1839 16.4917 16.3442L16.4225 16.4225C16.2791 16.566 16.0881 16.6522 15.8856 16.6649C15.6831 16.6777 15.4829 16.6161 15.3225 16.4917L15.2442 16.4225L10 11.1792L4.75588 16.4225C4.59871 16.5743 4.38821 16.6583 4.16971 16.6564C3.95122 16.6545 3.74221 16.5669 3.5877 16.4124C3.43319 16.2579 3.34555 16.0489 3.34365 15.8304C3.34175 15.6119 3.42575 15.4014 3.57755 15.2442L8.82088 10L3.57755 4.75586C3.43407 4.61237 3.34787 4.42145 3.33514 4.21893C3.32241 4.01641 3.384 3.8162 3.50838 3.65586L3.57755 3.57753L3.50838 3.65586Z" fill="#212121"/>
</svg>
