<svg width="20" height="20" viewBox="0 0 20 20" fill="none" xmlns="http://www.w3.org/2000/svg">
<path d="M8.79167 2.10998C9.12981 1.825 9.55779 1.6687 10 1.6687C10.4422 1.6687 10.8702 1.825 11.2083 2.10998L16.8333 6.85331C17.2558 7.20998 17.5 7.73415 17.5 8.28665V16.4558C17.5 16.8426 17.3464 17.2135 17.0729 17.487C16.7994 17.7605 16.4284 17.9141 16.0417 17.9141H13.125C12.7382 17.9141 12.3673 17.7605 12.0938 17.487C11.8203 17.2135 11.6667 16.8426 11.6667 16.4558V11.8725C11.6667 11.8172 11.6447 11.7642 11.6056 11.7252C11.5666 11.6861 11.5136 11.6641 11.4583 11.6641H8.54167C8.48641 11.6641 8.43342 11.6861 8.39435 11.7252C8.35528 11.7642 8.33333 11.8172 8.33333 11.8725V16.4558C8.33333 16.8426 8.17969 17.2135 7.9062 17.487C7.63271 17.7605 7.26177 17.9141 6.875 17.9141H3.95833C3.76682 17.9141 3.57719 17.8764 3.40025 17.8031C3.22332 17.7298 3.06255 17.6224 2.92714 17.487C2.79172 17.3516 2.6843 17.1908 2.61101 17.0139C2.53772 16.837 2.5 16.6473 2.5 16.4558V8.28665C2.5 7.73415 2.74417 7.20998 3.16667 6.85331L8.79167 2.10998ZM10.4025 3.06581C10.2898 2.97097 10.1473 2.91895 10 2.91895C9.85272 2.91895 9.71017 2.97097 9.5975 3.06581L3.9725 7.80831C3.90289 7.86691 3.84691 7.94 3.80848 8.02248C3.77005 8.10495 3.75009 8.19482 3.75 8.28581V16.455C3.75 16.57 3.84333 16.6633 3.95833 16.6633H6.875C6.93025 16.6633 6.98324 16.6414 7.02231 16.6023C7.06138 16.5632 7.08333 16.5102 7.08333 16.455V11.8716C7.08333 11.0658 7.73667 10.4133 8.54167 10.4133H11.4583C12.2633 10.4133 12.9167 11.0658 12.9167 11.8716V16.455C12.9167 16.57 13.01 16.6633 13.125 16.6633H16.0417C16.0969 16.6633 16.1499 16.6414 16.189 16.6023C16.2281 16.5632 16.25 16.5102 16.25 16.455V8.28665C16.2499 8.19566 16.2299 8.10579 16.1915 8.02331C16.1531 7.94083 16.0971 7.86774 16.0275 7.80915L10.4025 3.06581Z" fill="#212121"/>
</svg>
