<svg width="20" height="20" viewBox="0 0 20 20" fill="none" xmlns="http://www.w3.org/2000/svg">
<path d="M10.0001 2.94871C11.9442 2.94871 13.5258 4.53031 13.5258 6.47505C13.5258 8.41839 11.9442 10.0007 10.0001 10.0007C8.05607 10.0007 6.47447 8.41839 6.47447 6.47505C6.47447 4.53031 8.05607 2.94871 10.0001 2.94871V2.94871ZM10.0001 1.53845C7.27409 1.53845 5.06422 3.74832 5.06422 6.47505C5.06422 9.20038 7.27409 11.411 10.0001 11.411C12.7261 11.411 14.936 9.20038 14.936 6.47505C14.936 3.74832 12.7261 1.53845 10.0001 1.53845V1.53845ZM14.4911 10.954C14.1406 11.3052 13.7458 11.6105 13.322 11.8721C15.3471 13.1935 16.409 15.4563 16.8279 17.052H3.15755C3.56088 15.4372 4.6087 13.1717 6.66415 11.8636C6.23896 11.5999 5.84479 11.2918 5.49505 10.9385C2.49261 13.1047 1.53857 16.9363 1.53857 18.4615H18.4617C18.4617 16.9511 17.4463 13.1329 14.4911 10.954Z" fill="#212121"/>
</svg>
