<svg width="20" height="20" viewBox="0 0 20 20" fill="none" xmlns="http://www.w3.org/2000/svg">
<path d="M9.9025 2.50583L10 2.5C10.2041 2.50003 10.4011 2.57496 10.5536 2.7106C10.7062 2.84623 10.8036 3.03312 10.8275 3.23583L10.8333 3.33333V9.16667H16.6667C16.8708 9.16669 17.0678 9.24163 17.2203 9.37726C17.3728 9.5129 17.4703 9.69979 17.4942 9.9025L17.5 10C17.5 10.2041 17.425 10.4011 17.2894 10.5536C17.1538 10.7062 16.9669 10.8036 16.7642 10.8275L16.6667 10.8333H10.8333V16.6667C10.8333 16.8708 10.7584 17.0678 10.6227 17.2203C10.4871 17.3728 10.3002 17.4703 10.0975 17.4942L10 17.5C9.79589 17.5 9.59889 17.425 9.44636 17.2894C9.29383 17.1538 9.19638 16.9669 9.1725 16.7642L9.16667 16.6667V10.8333H3.33333C3.12922 10.8333 2.93222 10.7584 2.77969 10.6227C2.62716 10.4871 2.52971 10.3002 2.50583 10.0975L2.5 10C2.50003 9.79589 2.57496 9.59889 2.7106 9.44636C2.84623 9.29383 3.03312 9.19638 3.23583 9.1725L3.33333 9.16667H9.16667V3.33333C9.16669 3.12922 9.24163 2.93222 9.37726 2.77969C9.5129 2.62716 9.69979 2.52971 9.9025 2.50583L10 2.5L9.9025 2.50583Z" fill="#212121"/>
</svg>
