<svg width="20" height="20" viewBox="0 0 20 20" fill="none" xmlns="http://www.w3.org/2000/svg">
<path d="M8.33322 2.29163C9.47497 2.29148 10.5934 2.61487 11.5589 3.22431C12.5244 3.83374 13.2974 4.70429 13.7884 5.73506C14.2794 6.76583 14.4683 7.91464 14.3332 9.04836C14.198 10.1821 13.7444 11.2543 13.0249 12.1408L17.1082 16.2241C17.2203 16.3355 17.2861 16.4852 17.2923 16.6431C17.2984 16.8011 17.2445 16.9554 17.1414 17.0752C17.0384 17.195 16.8937 17.2713 16.7366 17.2887C16.5796 17.3061 16.4217 17.2634 16.2949 17.1691L16.2249 17.1083L12.1407 13.025C11.3898 13.6342 10.5036 14.0543 9.55658 14.25C8.60957 14.4457 7.62943 14.4111 6.69853 14.1493C5.76764 13.8876 4.91318 13.4061 4.20697 12.7456C3.50075 12.085 2.96342 11.2645 2.64013 10.3532C2.31684 9.4418 2.21703 8.46615 2.34909 7.5082C2.48115 6.55025 2.84122 5.638 3.39905 4.84811C3.95688 4.05821 4.69616 3.41375 5.55476 2.9689C6.41337 2.52404 7.36621 2.29177 8.33322 2.29163V2.29163ZM8.33322 3.54163C7.70397 3.54163 7.08088 3.66557 6.49953 3.90637C5.91818 4.14717 5.38995 4.50013 4.945 4.94507C4.50005 5.39002 4.1471 5.91825 3.9063 6.4996C3.66549 7.08095 3.54155 7.70404 3.54155 8.33329C3.54155 8.96254 3.66549 9.58563 3.9063 10.167C4.1471 10.7483 4.50005 11.2766 4.945 11.7215C5.38995 12.1665 5.91818 12.5194 6.49953 12.7602C7.08088 13.001 7.70397 13.125 8.33322 13.125C9.60405 13.125 10.8228 12.6201 11.7214 11.7215C12.6201 10.8229 13.1249 9.60412 13.1249 8.33329C13.1249 7.06246 12.6201 5.84368 11.7214 4.94507C10.8228 4.04646 9.60405 3.54163 8.33322 3.54163V3.54163Z" fill="#212121"/>
</svg>
